#!OML:ASF E:\Style4\Style4.ASF
:FULLY-SPECIFIED
:DEGREES
1861
root 1.29642 17.09 -1.15936 -0.662972 -22.6597 2.07303
lowerback 11.0005 -1.4852 -5.11705
upperback 7.66317 -2.47922 0.655819
thorax 2.11461 -1.49594 3.77049
lowerneck -0.593797 -4.98078 -6.42521
upperneck -10.571 -6.31261 7.38611
head -2.86412 -3.18485 3.72346
rclavicle -1.45392e-014 7.01958e-015
rhumerus 66.4801 -6.11388 -33.9497
rradius 79.3977
rwrist -45.2135
rhand -41.7341 50.3329
rfingers 7.12502
rthumb -14.639 20.8696
lclavicle -1.45392e-014 7.01958e-015
lhumerus 77.7294 -2.80839 38.3674
lradius 79.5391
lwrist 41.7384
lhand -28.8107 21.0165
lfingers 7.12502
lthumb -2.16887 50.9852
rfemur -26.7994 9.71703 12.3103
rtibia 46.6723
rfoot -19.9346 -6.26378
rtoes -18.3251
lfemur -19.7953 14.304 -25.9158
ltibia 47.1545
lfoot -30.1807 14.8567
ltoes -9.15315
1862
root 1.29731 17.087 -1.15899 -0.635557 -22.6304 2.07255
lowerback 11.0549 -1.51287 -5.08459
upperback 7.66345 -2.51623 0.699541
thorax 2.08979 -1.51379 3.8031
lowerneck -0.682246 -5.02773 -6.52393
upperneck -10.5356 -6.37262 7.41568
head -2.8273 -3.21111 3.74698
rclavicle 4.12478e-015 -1.55549e-014
rhumerus 66.9648 -6.77459 -33.7401
rradius 78.8814
rwrist -45.3705
rhand -41.7513 50.1923
rfingers 7.12502
rthumb -14.6555 20.7302
lclavicle 4.12478e-015 -1.55549e-014
lhumerus 78.2975 -2.14973 38.2773
lradius 78.9742
lwrist 41.8707
lhand -28.6857 21.3727
lfingers 7.12502
lthumb -2.04818 51.3426
rfemur -26.8589 9.66852 12.3034
rtibia 46.7459
rfoot -19.9648 -6.2353
rtoes -18.3763
lfemur -19.8465 14.3016 -25.9279
ltibia 47.203
lfoot -30.1226 14.8946
ltoes -9.3712
1863
root 1.2973 17.0841 -1.15794 -0.632547 -22.6177 2.13639
lowerback 11.1082 -1.53953 -5.10811
upperback 7.6473 -2.55639 0.694655
thorax 2.04913 -1.53321 3.81702
lowerneck -0.654761 -5.03782 -6.5003
upperneck -10.5718 -6.38785 7.39873
head -2.84476 -3.21954 3.73931
rclavicle -1.01293e-013 4.18193e-014
rhumerus 67.4231 -7.36473 -33.6335
rradius 78.3455
rwrist -45.6027
rhand -41.6832 49.8551
rfingers 7.12502
rthumb -14.5899 20.3883
lclavicle -1.01293e-013 4.18193e-014
lhumerus 78.7839 -1.5274 38.1362
lradius 78.3826
lwrist 42.0528
lhand -28.4468 21.2044
lfingers 7.12502
lthumb -1.8174 51.1764
rfemur -26.9286 9.62577 12.2316
rtibia 46.8319
rfoot -20.032 -6.2429
rtoes -18.5233
lfemur -19.8927 14.2978 -26.0038
ltibia 47.2307
lfoot -30.098 14.9285
ltoes -9.45045
1864
root 1.29677 17.0808 -1.15544 -0.617739 -22.6078 2.17069
lowerback 11.164 -1.55787 -5.10522
upperback 7.6064 -2.58361 0.696355
thorax 1.9783 -1.54374 3.82274
lowerneck -0.608078 -5.01984 -6.40904
upperneck -10.578 -6.3693 7.32618
head -2.86161 -3.21184 3.69926
rclavicle -2.34317e-014 1.35919e-014
rhumerus 67.8092 -7.90259 -33.4878
rradius 77.7907
rwrist -45.9139
rhand -41.6673 49.7554
rfingers 7.12502
rthumb -14.5746 20.2874
lclavicle -2.34317e-014 1.35919e-014
lhumerus 79.2096 -0.98184 37.9601
lradius 77.8324
lwrist 42.4109
lhand -28.3576 21.1352
lfingers 7.12502
lthumb -1.73124 51.108
rfemur -26.9917 9.60831 12.1878
rtibia 46.9124
rfoot -20.0859 -6.26332
rtoes -18.5593
lfemur -19.9272 14.3309 -26.045
ltibia 47.2558
lfoot -30.1669 14.8818
ltoes -9.39569
1865
root 1.29646 17.0784 -1.15325 -0.609641 -22.5887 2.2695
lowerback 11.1568 -1.56751 -5.19912
upperback 7.57385 -2.60415 0.712446
thorax 1.95632 -1.55644 3.89456
lowerneck -0.477423 -5.00079 -6.34613
upperneck -10.6304 -6.35376 7.24559
head -2.90917 -3.20525 3.66726
rclavicle -1.7754e-014 6.11263e-015
rhumerus 68.1919 -8.40696 -33.3358
rradius 77.2754
rwrist -46.2175
rhand -41.5885 49.7178
rfingers 7.12502
rthumb -14.4987 20.2444
lclavicle -1.7754e-014 6.11263e-015
lhumerus 79.6336 -0.471607 37.8143
lradius 77.3425
lwrist 42.8601
lhand -28.4312 21.2259
lfingers 7.12502
lthumb -1.80234 51.1981
rfemur -27.0888 9.5635 12.0687
rtibia 47.0062
rfoot -20.1345 -6.18861
rtoes -18.2134
lfemur -19.9812 14.3755 -26.1571
ltibia 47.2787
lfoot -30.1836 14.8301
ltoes -9.31963
1866
root 1.29503 17.0751 -1.15246 -0.632242 -22.5338 2.33388
lowerback 11.2082 -1.61209 -5.20459
upperback 7.58138 -2.66622 0.706591
thorax 1.94313 -1.58749 3.89858
lowerneck -0.450581 -4.99423 -6.38951
upperneck -10.663 -6.34715 7.24291
head -2.92483 -3.20059 3.67687
rclavicle 1.40392e-014 -3.27995e-015
rhumerus 68.6326 -8.88346 -33.2876
rradius 76.8114
rwrist -46.555
rhand -41.419 49.8983
rfingers 7.12502
rthumb -14.3354 20.4132
lclavicle 1.40392e-014 -3.27995e-015
lhumerus 80.1052 0.076883 37.6653
lradius 76.8536
lwrist 43.3311
lhand -28.4492 21.4368
lfingers 7.12502
lthumb -1.81973 51.4088
rfemur -27.133 9.52662 11.9994
rtibia 47.1012
rfoot -20.1751 -6.17037
rtoes -18.1038
lfemur -19.9994 14.3693 -26.2191
ltibia 47.3119
lfoot -30.1699 14.771
ltoes -9.31757
1867
root 1.29304 17.0696 -1.15136 -0.639891 -22.4897 2.33344
lowerback 11.2769 -1.63428 -5.18088
upperback 7.59367 -2.69729 0.751035
thorax 1.92343 -1.60324 3.93693
lowerneck -0.478722 -5.0168 -6.48043
upperneck -10.6733 -6.3792 7.23552
head -2.91844 -3.21259 3.69047
rclavicle 4.33848e-014 1.0138e-014
rhumerus 69.0677 -9.33544 -33.2243
rradius 76.3271
rwrist -46.7604
rhand -41.34 50.1326
rfingers 7.12502
rthumb -14.2593 20.6422
lclavicle 4.33848e-014 1.0138e-014
lhumerus 80.585 0.60505 37.6086
lradius 76.35
lwrist 43.7513
lhand -28.4563 21.5986
lfingers 7.12502
lthumb -1.82663 51.5706
rfemur -27.1656 9.53075 12.0116
rtibia 47.2202
rfoot -20.1979 -6.27423
rtoes -18.417
lfemur -20.015 14.336 -26.2027
ltibia 47.3669
lfoot -30.2683 14.696
ltoes -9.3086
1868
root 1.29084 17.0645 -1.14955 -0.655854 -22.4524 2.3326
lowerback 11.3365 -1.63332 -5.15227
upperback 7.61432 -2.69671 0.789632
thorax 1.9135 -1.60327 3.96319
lowerneck -0.540579 -5.06909 -6.52056
upperneck -10.6342 -6.4511 7.20404
head -2.88773 -3.24524 3.68277
rclavicle -5.48646e-014 1.65985e-014
rhumerus 69.4016 -9.77305 -33.1716
rradius 75.9648
rwrist -46.9001
rhand -41.4065 49.7169
rfingers 7.12502
rthumb -14.3233 20.231
lclavicle -5.48646e-014 1.65985e-014
lhumerus 81.0253 1.12045 37.5213
lradius 75.8638
lwrist 44.095
lhand -28.4158 21.4096
lfingers 7.12502
lthumb -1.78746 51.3819
rfemur -27.1923 9.53815 12.0203
rtibia 47.3404
rfoot -20.2168 -6.35376
rtoes -18.3452
lfemur -20.0152 14.3033 -26.1826
ltibia 47.4308
lfoot -30.3954 14.6505
ltoes -9.37984
